<svg id="Layer_1" enable-background="new 0 0 512.034 512.034" height="512" viewBox="0 0 512.034 512.034" fill="white" width="512" xmlns="http://www.w3.org/2000/svg"><g><path d="m433.034 385.634h-17.134v-17.133c0-8.284-6.716-15-15-15s-15 6.716-15 15v17.133h-17.133c-8.284 0-15 6.716-15 15s6.716 15 15 15h17.133v17.133c0 8.284 6.716 15 15 15s15-6.716 15-15v-17.133h17.134c19.877-.735 19.87-29.268 0-30z"/><path d="m436.479 295.061c49.716-141.026-61.97-297.822-212.314-295.024-123.636-.003-223.864 100.226-223.864 223.864-2.788 150.317 154 262.066 295.026 212.312 14.879 44.033 56.583 75.821 105.573 75.821 126.524-2.482 153.318-175.29 35.579-216.973zm-406.178-71.16c0-106.898 86.968-193.867 193.866-193.867 131.597-2.41 228.875 136.599 182.516 259.349-21.976-1.144-43.723 4.172-62.37 15.272-17.873-16.741-38.996-29.467-61.829-37.525 71.066-54.639 32.497-170.546-58.318-170.695-90.748.147-129.359 115.943-58.416 170.617-38.986 13.701-72.256 40.882-93.435 77.34-27.23-34.179-42.014-76.238-42.014-120.491zm193.866 33.2c-36.024 0-65.333-29.309-65.333-65.333 3.285-86.555 127.396-86.531 130.667.001 0 36.024-29.309 65.332-65.334 65.332zm65.482 149.312c-66.088 24.254-144.169 8.922-195.717-38.951 40.331-84.352 157.359-107.027 226.546-43.933-21.185 21.886-32.464 51.943-30.829 82.884zm111.251 75.621c-44.884 0-81.399-36.516-81.399-81.4 4.092-107.84 158.724-107.81 162.8.001 0 44.884-36.516 81.399-81.401 81.399z"/></g></svg>