<svg id="Capa_1" enable-background="new 0 0 512 512" fill="white" height="512" viewBox="0 0 512 512" width="512" xmlns="http://www.w3.org/2000/svg"><g><g><path d="m421.67 397.52c4.142 0 7.5-3.357 7.5-7.5v-9.439c0-20.057-6.923-39.71-19.493-55.34-12.569-15.627-30.279-26.604-49.868-30.905l-26.93-5.915-37.054-28.067v-23.904c17.117-12.384 28.285-32.507 28.285-55.201v-4.622h4.622c15.275 0 27.703-12.428 27.703-27.703v-8.081c0-4.577-1.123-8.894-3.096-12.702h8.931c3.979 0 7.762-1.915 10.117-5.123 2.355-3.207 3.05-7.388 1.861-11.175l-5.84-18.68c-2.311-7.389-9.061-12.353-16.798-12.353h-7.619c-3.821-45.197-41.823-80.81-87.991-80.81s-84.17 35.613-87.991 80.81h-7.619c-7.737 0-14.488 4.964-16.798 12.353l-5.837 18.672c-1.191 3.795-.497 7.976 1.858 11.183 2.355 3.208 6.138 5.123 10.117 5.123h8.931c-1.974 3.808-3.096 8.125-3.096 12.702v8.081c0 15.275 12.428 27.703 27.703 27.703h4.622v4.622c0 22.694 11.168 42.818 28.285 55.201v23.904l-37.054 28.067-26.93 5.915c-19.588 4.302-37.298 15.278-49.868 30.905-12.57 15.63-19.493 35.283-19.493 55.34v19.36c0 4.143 3.358 7.5 7.5 7.5s7.5-3.357 7.5-7.5v-19.36c0-16.649 5.747-32.964 16.182-45.938 10.434-12.973 25.136-22.085 41.397-25.656l22.21-4.878 17.329 46.03c1.621 4.304 5.269 7.468 9.759 8.462.982.218 1.971.324 2.952.324 3.503 0 6.899-1.359 9.466-3.872l31.375-30.708v172.655h-90.06l.003-89.476c0-1.989-.79-3.896-2.196-5.303l-5.801-5.802c-2.93-2.93-7.678-2.929-10.607-.001-2.929 2.929-2.929 7.678 0 10.606l3.605 3.605v33.839h-45.614v-9.529c0-4.143-3.358-7.5-7.5-7.5s-7.5 3.357-7.5 7.5l.003 69.56c0 4.143 3.358 7.5 7.5 7.5h331.333c4.142 0 7.5-3.357 7.5-7.5l.003-79.48c0-4.143-3.358-7.5-7.5-7.5s-7.5 3.357-7.5 7.5v19.45h-45.613v-33.839l3.605-3.605c2.929-2.929 2.928-7.678 0-10.606-2.93-2.928-7.678-2.929-10.607.001l-5.801 5.802c-1.406 1.406-2.196 3.313-2.196 5.303l.003 89.475h-90.06v-172.657l31.375 30.708c2.568 2.514 5.963 3.873 9.467 3.873.98 0 1.97-.106 2.952-.324 4.49-.994 8.138-4.158 9.759-8.462l17.329-46.03 22.21 4.878c16.261 3.571 30.963 12.684 41.397 25.656 10.435 12.975 16.182 29.289 16.182 45.938v9.439c-.001 4.143 3.357 7.501 7.499 7.501zm-323.837 61.95h45.606v37.53h-45.606zm316.334 0v37.53h-45.607v-37.53zm-72.732-318.628v8.081c0 7.005-5.699 12.703-12.703 12.703h-4.622v-33.486h4.641c6.996.01 12.684 5.703 12.684 12.702zm-12.504-60.032h-25.198c-.875-19.92-5.214-38.514-12.453-52.994-.915-1.83-1.869-3.572-2.856-5.232 22.073 10.933 37.895 32.648 40.507 58.226zm-72.931-65.81c7.691 0 15.66 7.116 21.864 19.523 6.242 12.485 10.025 28.703 10.864 46.286h-65.452c1.862-39.145 18.078-65.809 32.724-65.809zm-32.424 7.583c-.987 1.66-1.941 3.402-2.856 5.232-7.24 14.48-11.578 33.074-12.453 52.994h-25.198c2.612-25.577 18.434-47.292 40.507-58.226zm-40.308 139.043c-7.004 0-12.703-5.698-12.703-12.703v-8.081c0-6.998 5.688-12.692 12.684-12.702h4.641v33.486zm19.622 19.622v-53.108h11.22c4.142 0 7.5-3.357 7.5-7.5s-3.358-7.5-7.5-7.5h-61.048l4.846-15.501c.342-1.094 1.339-1.829 2.482-1.829h191.22c1.143 0 2.14.735 2.482 1.829l4.846 15.501h-109.828c-4.142 0-7.5 3.357-7.5 7.5s3.358 7.5 7.5 7.5h60v53.108c0 29.284-23.825 53.109-53.11 53.109s-53.11-23.825-53.11-53.109zm53.11 68.109c8.758 0 17.127-1.68 24.825-4.705v19.428 18.066l-24.825 15.517-24.825-15.516v-18.066-19.428c7.698 3.024 16.067 4.704 24.825 4.704zm-47.791 93.431-16.869-44.807 24.834-18.811v7.134c0 2.586 1.332 4.989 3.525 6.36l24.242 15.15zm95.582 0-35.732-34.973 24.242-15.15c2.193-1.371 3.525-3.774 3.525-6.36v-7.134l24.834 18.811z"/><path d="m288.325 400.024c-4.142 0-7.5 3.357-7.5 7.5s3.358 7.5 7.5 7.5h40.407c4.142 0 7.5-3.357 7.5-7.5s-3.358-7.5-7.5-7.5z"/><path d="m223.675 415.024c4.142 0 7.5-3.357 7.5-7.5s-3.358-7.5-7.5-7.5h-40.407c-4.142 0-7.5 3.357-7.5 7.5s3.358 7.5 7.5 7.5z"/></g></g></svg>