<svg id="Capa_1" enable-background="new 0 0 512 512" height="512" viewBox="0 0 512 512" width="512" xmlns="http://www.w3.org/2000/svg"><g><g><path d="m401.179 60.055c-38.811-38.739-90.351-60.055-145.177-60.055-.131 0-.268 0-.399 0-54.783.104-106.352 21.691-145.207 60.787-38.864 39.104-60.138 90.82-59.904 145.618.006 1.396.025 2.789.059 4.177 1.018 42.013 16.253 83.888 42.898 117.91l20.477 26.147c2.56 3.27 7.284 3.843 10.552 1.283 3.268-2.559 3.843-7.283 1.284-10.552l-20.477-26.147c-24.664-31.492-38.765-70.204-39.705-109.007-.031-1.288-.05-2.578-.055-3.874-.217-50.778 19.505-98.707 55.533-134.958 36.02-36.243 83.812-56.255 134.573-56.351h.369c50.813 0 98.589 19.759 134.559 55.661 36.059 35.991 55.917 83.87 55.917 134.816 0 1.28-.012 2.556-.038 3.833-.771 39.135-14.882 78.162-39.733 109.894l-132.088 168.663c-4.513 5.762-11.298 9.067-18.617 9.067-7.318 0-14.104-3.305-18.616-9.067l-89.991-114.91c-2.56-3.27-7.285-3.844-10.552-1.283-3.268 2.559-3.843 7.284-1.284 10.552l89.991 114.91c7.381 9.425 18.481 14.831 30.452 14.831 11.972 0 23.071-5.406 30.452-14.832l132.089-168.664c26.847-34.28 42.092-76.494 42.928-118.865.027-1.374.041-2.75.041-4.13 0-54.966-21.426-106.623-60.331-145.454z"/><path d="m389.805 239.976c4.041.947 8.085-1.564 9.032-5.606 2.558-10.934 3.856-22.223 3.856-33.553 0-80.887-65.807-146.693-146.693-146.693-80.887 0-146.693 65.807-146.693 146.693s65.806 146.693 146.693 146.693c54.652 0 104.426-30.069 129.896-78.472 1.934-3.673.523-8.218-3.151-10.151-3.675-1.935-8.219-.522-10.151 3.151-22.864 43.448-67.54 70.439-116.593 70.439-72.598 0-131.66-59.062-131.66-131.66s59.062-131.66 131.66-131.66 131.66 59.063 131.66 131.66c0 10.179-1.165 20.315-3.461 30.128-.946 4.041 1.563 8.084 5.605 9.031z"/><path d="m333.056 137.633c-5.887-5.436-13.541-8.252-21.545-7.934-8.007.319-15.41 3.738-20.845 9.625l-55.152 59.736-15.372-14.857c-11.895-11.493-30.923-11.171-42.418.723-11.494 11.893-11.17 30.921.723 42.417 0 0 37.435 36.18 37.44 36.185 12.059 11.655 31.367 11.261 42.888-1.219l75.972-82.285c5.437-5.887 8.255-13.539 7.935-21.545-.322-8.008-3.739-15.41-9.626-20.846zm-9.356 32.192c-.02.021-75.973 82.286-75.973 82.286-2.714 2.941-6.566 4.693-10.56 4.806-4.038.127-7.925-1.387-10.834-4.199l-37.439-36.185c-5.933-5.735-6.095-15.228-.361-21.161 2.932-3.033 6.845-4.558 10.763-4.558 3.747 0 7.498 1.395 10.398 4.197l20.901 20.201c1.455 1.406 3.411 2.182 5.438 2.109 2.023-.058 3.936-.928 5.309-2.415 0 0 60.247-65.253 60.37-65.386 7.051-7.637 20.513-5.379 24.694 4.107 2.315 5.281 1.205 11.962-2.706 16.198z"/></g></g></svg>