<svg id="Layer_1" enable-background="new 0 0 511.994 511.994" height="512" viewBox="0 0 511.994 511.994" width="512" fill="white" xmlns="http://www.w3.org/2000/svg"><g><path d="m510.142 169.513-19.622-29.689 19.544-28.694c1.625-2.386 2.14-5.357 1.412-8.151-.728-2.793-2.627-5.136-5.209-6.425l-31.814-15.887 2.594-34.633c.216-2.88-.824-5.713-2.852-7.77-2.03-2.057-4.865-3.145-7.729-2.959l-35.578 2.173-15.913-31.937c-1.288-2.586-3.633-4.489-6.43-5.217-2.796-.73-5.771-.212-8.158 1.417l-28.649 19.556-29.64-19.633c-2.409-1.596-5.388-2.071-8.178-1.305-2.786.768-5.104 2.703-6.356 5.307l-15.047 31.284-35.478-2.167c-2.891-.18-5.701.903-7.729 2.959-2.027 2.057-3.067 4.89-2.852 7.77l2.594 34.633-31.815 15.885c-2.582 1.289-4.481 3.632-5.209 6.425s-.213 5.765 1.411 8.15l19.545 28.697-.995 1.505c-66.056-5.158-135.741 12.937-183.756 49.525-88.333 63.563-91.239 179.065-5.303 245.241-5.142 19.166-17.071 46.604-27.881 59.851-2.37 2.905-2.917 6.892-1.415 10.328 3.007 7.082 10.781 6.106 17.149 6.242 33.889-.002 66.822-12.423 92.218-34.847 80.469 25.913 184.184 12.115 248.359-37.469 66.459-49.01 88.526-128.222 48.312-196.468l26.653 2.001c5.854.594 11.226-4.722 10.73-10.58 0 0-2.165-35.531-2.165-35.531l31.251-15.064c5.356-2.432 7.357-9.692 4.001-14.523zm-280.345 300.495c-29.984 0-58.961-4.594-86.124-13.652-3.529-1.178-7.426-.297-10.106 2.288-19.626 18.93-45.203 30.453-72.115 32.872 10.215-18.312 19.216-42.084 22.498-57.854.79-3.797-.686-7.708-3.787-10.036-142.219-110.924-12.118-272.65 159.037-263.468l-5.838 8.833c-1.592 2.408-2.064 5.387-1.298 8.169.767 2.783 2.698 5.1 5.298 6.353l31.251 15.064-2.165 35.531c-.176 2.883.903 5.701 2.96 7.729 2.057 2.027 4.897 3.08 7.77 2.851l35.738-2.682 15.552 32.331c1.253 2.604 3.57 4.539 6.356 5.307 2.787.767 5.767.292 8.178-1.305l29.64-19.633 28.649 19.556c2.39 1.633 5.38 2.144 8.158 1.417 2.797-.728 5.142-2.631 6.43-5.217l8.684-17.43c57.086 112.22-56.349 212.786-194.766 212.976zm230.361-286.009c-3.657 1.763-5.886 5.562-5.639 9.616l1.876 30.794-29.854-2.24c-4.039-.311-7.887 1.874-9.698 5.512l-13.75 27.597-24.729-16.881c-3.359-2.292-7.771-2.322-11.16-.077l-25.684 17.013-13.537-28.143c-1.675-3.48-5.189-5.665-9.009-5.665-.249 0-.5.009-.751.028l-31.114 2.335 1.876-30.795c.247-4.054-1.981-7.854-5.639-9.616l-26.985-13.009 17.009-25.735c2.237-3.386 2.207-7.788-.077-11.143l-16.878-24.78 27.579-13.771c3.633-1.813 5.808-5.645 5.504-9.693l-2.239-29.9 30.748 1.878c4.032.247 7.858-1.983 9.621-5.646l12.988-27.004 25.684 17.013c3.389 2.244 7.801 2.214 11.16-.077l24.729-16.881 13.75 27.597c1.789 3.592 5.566 5.769 9.56 5.521l30.748-1.878-2.239 29.9c-.304 4.049 1.871 7.88 5.504 9.693l27.579 13.771-16.877 24.779c-2.285 3.354-2.315 7.757-.078 11.143l17.01 25.736z"/><path d="m428.064 112.371-32.345-5.357-15.089-29.107c-1.719-3.316-5.143-5.397-8.878-5.397s-7.159 2.081-8.878 5.397l-15.089 29.106-32.345 5.357c-3.685.609-6.723 3.223-7.877 6.775s-.232 7.451 2.39 10.111l23.02 23.345-4.901 32.417c-.559 3.693.988 7.39 4.01 9.585 3.029 2.202 7.027 2.519 10.355.852 0 0 29.315-14.679 29.315-14.679l29.315 14.679c3.34 1.673 7.332 1.344 10.355-.852 3.021-2.195 4.568-5.892 4.01-9.585l-4.901-32.417 23.019-23.345c5.69-5.505 2.353-15.777-5.486-16.885zm-35.289 29.754c-2.213 2.244-3.238 5.4-2.768 8.517l2.767 18.294c-25.43-12.402-16.658-12.363-42.043.001 3.937-28.015 6.609-19.667-12.992-39.986 27.902-4.934 20.713.242 34.014-24.713 13.313 25.013 6.171 19.773 34.014 24.713z"/><path d="m119.797 290.501h110c13.22-.476 13.275-19.501 0-20h-110c-13.22.476-13.275 19.501 0 20z"/><path d="m339.797 310.501h-220c-5.522 0-10 4.478-10 10s4.478 10 10 10h220c13.185-.46 13.307-19.49 0-20z"/><path d="m339.797 350.502h-220c-5.522 0-10 4.478-10 10s4.478 10 10 10h220c13.185-.46 13.307-19.49 0-20z"/></g></svg>